<svg width="16" height="16" viewBox="0 0 16 16" fill="none" xmlns="http://www.w3.org/2000/svg">
<path d="M8.44097 0C6.85872 0 5.31201 0.469192 3.99641 1.34824C2.68082 2.22729 1.65544 3.47672 1.04994 4.93853C0.444438 6.40034 0.286011 8.00887 0.594693 9.56072C0.903374 11.1126 1.6653 12.538 2.78412 13.6569C3.90294 14.7757 5.3284 15.5376 6.88025 15.8463C8.4321 16.155 10.0406 15.9965 11.5024 15.391C12.9642 14.7855 14.2137 13.7602 15.0927 12.4446C15.9718 11.129 16.441 9.58225 16.441 8C16.4385 5.87902 15.5949 3.84561 14.0951 2.34585C12.5954 0.846093 10.562 0.00245139 8.44097 0ZM8.4409 3.69231C8.62346 3.69231 8.80193 3.74644 8.95373 3.84787C9.10553 3.9493 9.22384 4.09347 9.29371 4.26214C9.36357 4.43081 9.38185 4.61641 9.34624 4.79547C9.31062 4.97453 9.2227 5.139 9.09361 5.2681C8.96452 5.39719 8.80004 5.48511 8.62098 5.52072C8.44192 5.55634 8.25632 5.53806 8.08765 5.46819C7.91898 5.39833 7.77482 5.28002 7.67339 5.12822C7.57196 4.97642 7.51782 4.79795 7.51782 4.61538C7.51782 4.49416 7.5417 4.37413 7.58808 4.26214C7.63447 4.15014 7.70247 4.04838 7.78818 3.96267C7.8739 3.87695 7.97566 3.80896 8.08765 3.76257C8.19964 3.71618 8.31968 3.69231 8.4409 3.69231ZM9.05636 12.3077H8.44097C8.36015 12.3077 8.2801 12.2918 8.20542 12.2609C8.13074 12.23 8.06288 12.1847 8.00573 12.1276C7.94857 12.0704 7.90325 12.0025 7.87234 11.9279C7.84143 11.8532 7.82554 11.7731 7.82559 11.6923V8C7.66238 8 7.50585 7.93516 7.39045 7.81976C7.27504 7.70435 7.2102 7.54782 7.2102 7.38461C7.2102 7.2214 7.27504 7.06488 7.39045 6.94947C7.50585 6.83406 7.66238 6.76923 7.82559 6.76923H8.44097C8.5218 6.76918 8.60184 6.78507 8.67653 6.81598C8.75121 6.84689 8.81907 6.89221 8.87622 6.94937C8.93337 7.00652 8.9787 7.07438 9.00961 7.14906C9.04052 7.22374 9.0564 7.30379 9.05636 7.38461V11.0769C9.21957 11.0769 9.37609 11.1418 9.4915 11.2572C9.60691 11.3726 9.67174 11.5291 9.67174 11.6923C9.67174 11.8555 9.60691 12.012 9.4915 12.1274C9.37609 12.2429 9.21957 12.3077 9.05636 12.3077Z" fill="#333"/>
</svg>
